<?xml version="1.0" encoding="UTF-8" standalone="no"?>
<!DOCTYPE svg PUBLIC "-//W3C//DTD SVG 1.1//EN"
 "http://www.w3.org/Graphics/SVG/1.1/DTD/svg11.dtd">
<!-- Generated by graphviz version 2.43.0 (0)
 -->
<!-- Title: G Pages: 1 -->
<svg width="1008pt" height="245pt"
 viewBox="0.00 0.00 1008.00 245.00" xmlns="http://www.w3.org/2000/svg" xmlns:xlink="http://www.w3.org/1999/xlink">
<g id="graph0" class="graph" transform="scale(1 1) rotate(0) translate(4 241)">
<title>G</title>
<polygon fill="#ffffff" stroke="transparent" points="-4,4 -4,-241 1004,-241 1004,4 -4,4"/>
<g id="clust1" class="cluster">
<title>cluster_0</title>
<polygon fill="#f8e8e8" stroke="#2c3e50" points="8,-8 8,-229 992,-229 992,-8 8,-8"/>
<text text-anchor="middle" x="500" y="-215.4" font-family="Times,serif" font-size="12.00">Backward Pass</text>
</g>
<!-- n0x63e5ab89e320 -->
<g id="node1" class="node">
<title>n0x63e5ab89e320</title>
<polygon fill="#f8e8e8" stroke="black" points="851,-17 851,-53 981,-53 981,-17 851,-17"/>
<text text-anchor="middle" x="883.5" y="-32.5" font-family="Times,serif" font-size="10.00">data 3.0000</text>
<polyline fill="none" stroke="black" points="916,-17 916,-53 "/>
<text text-anchor="middle" x="948.5" y="-32.5" font-family="Times,serif" font-size="10.00">grad 1.0000</text>
</g>
<!-- n0x63e5ab89e2e0 -->
<g id="node2" class="node">
<title>n0x63e5ab89e2e0</title>
<polygon fill="#f8e8e8" stroke="black" points="848,-163 848,-199 984,-199 984,-163 848,-163"/>
<text text-anchor="middle" x="880.5" y="-178.5" font-family="Times,serif" font-size="10.00">data 4.0000</text>
<polyline fill="none" stroke="black" points="913,-163 913,-199 "/>
<text text-anchor="middle" x="948.5" y="-178.5" font-family="Times,serif" font-size="10.00">grad 14.0000</text>
</g>
<!-- n0x63e5ab89e2a0 -->
<g id="node3" class="node">
<title>n0x63e5ab89e2a0</title>
<polygon fill="#f8e8e8" stroke="black" points="848,-90 848,-126 984,-126 984,-90 848,-90"/>
<text text-anchor="middle" x="880.5" y="-105.5" font-family="Times,serif" font-size="10.00">data 3.0000</text>
<polyline fill="none" stroke="black" points="913,-90 913,-126 "/>
<text text-anchor="middle" x="948.5" y="-105.5" font-family="Times,serif" font-size="10.00">grad 15.0000</text>
</g>
<!-- n0x63e5ab89e360 -->
<g id="node4" class="node">
<title>n0x63e5ab89e360</title>
<polygon fill="#f8e8e8" stroke="black" points="639,-141 639,-177 798,-177 798,-141 639,-141"/>
<text text-anchor="middle" x="650.5" y="-156.5" font-family="Times,serif" font-size="10.00">+</text>
<polyline fill="none" stroke="black" points="662,-141 662,-177 "/>
<text text-anchor="middle" x="694.5" y="-156.5" font-family="Times,serif" font-size="10.00">data 7.0000</text>
<polyline fill="none" stroke="black" points="727,-141 727,-177 "/>
<text text-anchor="middle" x="762.5" y="-156.5" font-family="Times,serif" font-size="10.00">grad 14.0000</text>
</g>
<!-- n0x63e5ab89e360&#45;&gt;n0x63e5ab89e2e0 -->
<g id="edge2" class="edge">
<title>n0x63e5ab89e360&#45;&gt;n0x63e5ab89e2e0</title>
<path fill="none" stroke="#e74c3c" stroke-dasharray="5,2" d="M798.26,-170C798.26,-170 837.99,-170 837.99,-170"/>
<polygon fill="#e74c3c" stroke="#e74c3c" points="837.99,-173.5 847.99,-170 837.99,-166.5 837.99,-173.5"/>
</g>
<!-- n0x63e5ab89e360&#45;&gt;n0x63e5ab89e2a0 -->
<g id="edge1" class="edge">
<title>n0x63e5ab89e360&#45;&gt;n0x63e5ab89e2a0</title>
<path fill="none" stroke="#e74c3c" stroke-dasharray="5,2" d="M798.26,-151.5C853.08,-151.5 916,-151.5 916,-151.5 916,-151.5 916,-136.2 916,-136.2"/>
<polygon fill="#e74c3c" stroke="#e74c3c" points="919.5,-136.2 916,-126.2 912.5,-136.2 919.5,-136.2"/>
</g>
<!-- n0x63e5ab89e3c0 -->
<g id="node5" class="node">
<title>n0x63e5ab89e3c0</title>
<polygon fill="#f8e8e8" stroke="black" points="432,-141 432,-177 589,-177 589,-141 432,-141"/>
<text text-anchor="middle" x="443" y="-156.5" font-family="Times,serif" font-size="10.00">*</text>
<polyline fill="none" stroke="black" points="454,-141 454,-177 "/>
<text text-anchor="middle" x="489" y="-156.5" font-family="Times,serif" font-size="10.00">data 49.0000</text>
<polyline fill="none" stroke="black" points="524,-141 524,-177 "/>
<text text-anchor="middle" x="556.5" y="-156.5" font-family="Times,serif" font-size="10.00">grad 1.0000</text>
</g>
<!-- n0x63e5ab89e3c0&#45;&gt;n0x63e5ab89e360 -->
<g id="edge3" class="edge">
<title>n0x63e5ab89e3c0&#45;&gt;n0x63e5ab89e360</title>
<path fill="none" stroke="#e74c3c" stroke-dasharray="5,2" d="M589.14,-152.83C589.14,-152.83 628.72,-152.83 628.72,-152.83"/>
<polygon fill="#e74c3c" stroke="#e74c3c" points="628.72,-156.33 638.72,-152.83 628.72,-149.33 628.72,-156.33"/>
</g>
<!-- n0x63e5ab89e3c0&#45;&gt;n0x63e5ab89e360 -->
<g id="edge4" class="edge">
<title>n0x63e5ab89e3c0&#45;&gt;n0x63e5ab89e360</title>
<path fill="none" stroke="#e74c3c" stroke-dasharray="5,2" d="M589.14,-165.17C589.14,-165.17 628.72,-165.17 628.72,-165.17"/>
<polygon fill="#e74c3c" stroke="#e74c3c" points="628.72,-168.67 638.72,-165.17 628.72,-161.67 628.72,-168.67"/>
</g>
<!-- n0x63e5ab89e420 -->
<g id="node6" class="node">
<title>n0x63e5ab89e420</title>
<polygon fill="#f8e8e8" stroke="black" points="224,-85 224,-121 382,-121 382,-85 224,-85"/>
<text text-anchor="middle" x="235.5" y="-100.5" font-family="Times,serif" font-size="10.00">+</text>
<polyline fill="none" stroke="black" points="247,-85 247,-121 "/>
<text text-anchor="middle" x="282" y="-100.5" font-family="Times,serif" font-size="10.00">data 52.0000</text>
<polyline fill="none" stroke="black" points="317,-85 317,-121 "/>
<text text-anchor="middle" x="349.5" y="-100.5" font-family="Times,serif" font-size="10.00">grad 1.0000</text>
</g>
<!-- n0x63e5ab89e420&#45;&gt;n0x63e5ab89e2a0 -->
<g id="edge6" class="edge">
<title>n0x63e5ab89e420&#45;&gt;n0x63e5ab89e2a0</title>
<path fill="none" stroke="#e74c3c" stroke-dasharray="5,2" d="M382.2,-100.17C382.2,-100.17 837.87,-100.17 837.87,-100.17"/>
<polygon fill="#e74c3c" stroke="#e74c3c" points="837.87,-103.67 847.87,-100.17 837.87,-96.67 837.87,-103.67"/>
</g>
<!-- n0x63e5ab89e420&#45;&gt;n0x63e5ab89e3c0 -->
<g id="edge5" class="edge">
<title>n0x63e5ab89e420&#45;&gt;n0x63e5ab89e3c0</title>
<path fill="none" stroke="#e74c3c" stroke-dasharray="5,2" d="M382.23,-110.83C441.01,-110.83 511,-110.83 511,-110.83 511,-110.83 511,-130.79 511,-130.79"/>
<polygon fill="#e74c3c" stroke="#e74c3c" points="507.5,-130.79 511,-140.79 514.5,-130.79 507.5,-130.79"/>
</g>
<!-- n0x63e5ab89e480 -->
<g id="node7" class="node">
<title>n0x63e5ab89e480</title>
<polygon fill="#f8e8e8" stroke="black" points="16,-45 16,-81 174,-81 174,-45 16,-45"/>
<text text-anchor="middle" x="27.5" y="-60.5" font-family="Times,serif" font-size="10.00">+</text>
<polyline fill="none" stroke="black" points="39,-45 39,-81 "/>
<text text-anchor="middle" x="74" y="-60.5" font-family="Times,serif" font-size="10.00">data 55.0000</text>
<polyline fill="none" stroke="black" points="109,-45 109,-81 "/>
<text text-anchor="middle" x="141.5" y="-60.5" font-family="Times,serif" font-size="10.00">grad 1.0000</text>
</g>
<!-- n0x63e5ab89e480&#45;&gt;n0x63e5ab89e320 -->
<g id="edge8" class="edge">
<title>n0x63e5ab89e480&#45;&gt;n0x63e5ab89e320</title>
<path fill="none" stroke="#e74c3c" stroke-dasharray="5,2" d="M174.09,-49C174.09,-49 840.91,-49 840.91,-49"/>
<polygon fill="#e74c3c" stroke="#e74c3c" points="840.91,-52.5 850.91,-49 840.91,-45.5 840.91,-52.5"/>
</g>
<!-- n0x63e5ab89e480&#45;&gt;n0x63e5ab89e420 -->
<g id="edge7" class="edge">
<title>n0x63e5ab89e480&#45;&gt;n0x63e5ab89e420</title>
<path fill="none" stroke="#e74c3c" stroke-dasharray="5,2" d="M174.23,-67.5C233.01,-67.5 303,-67.5 303,-67.5 303,-67.5 303,-74.83 303,-74.83"/>
<polygon fill="#e74c3c" stroke="#e74c3c" points="299.5,-74.83 303,-84.83 306.5,-74.83 299.5,-74.83"/>
</g>
</g>
</svg>
