<?xml version="1.0" encoding="UTF-8" standalone="no"?>
<!DOCTYPE svg PUBLIC "-//W3C//DTD SVG 1.1//EN"
 "http://www.w3.org/Graphics/SVG/1.1/DTD/svg11.dtd">
<!-- Generated by graphviz version 2.43.0 (0)
 -->
<!-- Title: G Pages: 1 -->
<svg width="671pt" height="245pt"
 viewBox="0.00 0.00 671.00 245.00" xmlns="http://www.w3.org/2000/svg" xmlns:xlink="http://www.w3.org/1999/xlink">
<g id="graph0" class="graph" transform="scale(1 1) rotate(0) translate(4 241)">
<title>G</title>
<polygon fill="#ffffff" stroke="transparent" points="-4,4 -4,-241 667,-241 667,4 -4,4"/>
<g id="clust1" class="cluster">
<title>cluster_0</title>
<polygon fill="#f8e8e8" stroke="#2c3e50" points="8,-8 8,-229 655,-229 655,-8 8,-8"/>
<text text-anchor="middle" x="331.5" y="-215.4" font-family="Times,serif" font-size="12.00">Forward Pass</text>
</g>
<!-- n0x63e5ab89e2a0 -->
<g id="node1" class="node">
<title>n0x63e5ab89e2a0</title>
<polygon fill="#f8e8e8" stroke="black" points="16,-163 16,-199 81,-199 81,-163 16,-163"/>
<text text-anchor="middle" x="48.5" y="-178.5" font-family="Times,serif" font-size="10.00">data 3.0000</text>
</g>
<!-- n0x63e5ab89e360 -->
<g id="node4" class="node">
<title>n0x63e5ab89e360</title>
<polygon fill="#f8e8e8" stroke="black" points="131,-94 131,-130 219,-130 219,-94 131,-94"/>
<text text-anchor="middle" x="142.5" y="-109.5" font-family="Times,serif" font-size="10.00">+</text>
<polyline fill="none" stroke="black" points="154,-94 154,-130 "/>
<text text-anchor="middle" x="186.5" y="-109.5" font-family="Times,serif" font-size="10.00">data 7.0000</text>
</g>
<!-- n0x63e5ab89e2a0&#45;&gt;n0x63e5ab89e360 -->
<g id="edge1" class="edge">
<title>n0x63e5ab89e2a0&#45;&gt;n0x63e5ab89e360</title>
<path fill="none" stroke="#2c3e50" d="M81.08,-174.83C118.56,-174.83 175,-174.83 175,-174.83 175,-174.83 175,-140.17 175,-140.17"/>
<polygon fill="#2c3e50" stroke="#2c3e50" points="178.5,-140.17 175,-130.17 171.5,-140.17 178.5,-140.17"/>
</g>
<!-- n0x63e5ab89e420 -->
<g id="node6" class="node">
<title>n0x63e5ab89e420</title>
<polygon fill="#f8e8e8" stroke="black" points="411,-94 411,-130 504,-130 504,-94 411,-94"/>
<text text-anchor="middle" x="422.5" y="-109.5" font-family="Times,serif" font-size="10.00">+</text>
<polyline fill="none" stroke="black" points="434,-94 434,-130 "/>
<text text-anchor="middle" x="469" y="-109.5" font-family="Times,serif" font-size="10.00">data 52.0000</text>
</g>
<!-- n0x63e5ab89e2a0&#45;&gt;n0x63e5ab89e420 -->
<g id="edge6" class="edge">
<title>n0x63e5ab89e2a0&#45;&gt;n0x63e5ab89e420</title>
<path fill="none" stroke="#2c3e50" d="M81.32,-187.17C178.49,-187.17 458,-187.17 458,-187.17 458,-187.17 458,-140.2 458,-140.2"/>
<polygon fill="#2c3e50" stroke="#2c3e50" points="461.5,-140.2 458,-130.2 454.5,-140.2 461.5,-140.2"/>
</g>
<!-- n0x63e5ab89e2e0 -->
<g id="node2" class="node">
<title>n0x63e5ab89e2e0</title>
<polygon fill="#f8e8e8" stroke="black" points="16,-90 16,-126 81,-126 81,-90 16,-90"/>
<text text-anchor="middle" x="48.5" y="-105.5" font-family="Times,serif" font-size="10.00">data 4.0000</text>
</g>
<!-- n0x63e5ab89e2e0&#45;&gt;n0x63e5ab89e360 -->
<g id="edge2" class="edge">
<title>n0x63e5ab89e2e0&#45;&gt;n0x63e5ab89e360</title>
<path fill="none" stroke="#2c3e50" d="M81.08,-110C81.08,-110 120.61,-110 120.61,-110"/>
<polygon fill="#2c3e50" stroke="#2c3e50" points="120.61,-113.5 130.61,-110 120.61,-106.5 120.61,-113.5"/>
</g>
<!-- n0x63e5ab89e320 -->
<g id="node3" class="node">
<title>n0x63e5ab89e320</title>
<polygon fill="#f8e8e8" stroke="black" points="16,-17 16,-53 81,-53 81,-17 16,-17"/>
<text text-anchor="middle" x="48.5" y="-32.5" font-family="Times,serif" font-size="10.00">data 3.0000</text>
</g>
<!-- n0x63e5ab89e480 -->
<g id="node7" class="node">
<title>n0x63e5ab89e480</title>
<polygon fill="#f8e8e8" stroke="black" points="554,-61 554,-97 647,-97 647,-61 554,-61"/>
<text text-anchor="middle" x="565.5" y="-76.5" font-family="Times,serif" font-size="10.00">+</text>
<polyline fill="none" stroke="black" points="577,-61 577,-97 "/>
<text text-anchor="middle" x="612" y="-76.5" font-family="Times,serif" font-size="10.00">data 55.0000</text>
</g>
<!-- n0x63e5ab89e320&#45;&gt;n0x63e5ab89e480 -->
<g id="edge8" class="edge">
<title>n0x63e5ab89e320&#45;&gt;n0x63e5ab89e480</title>
<path fill="none" stroke="#2c3e50" d="M49,-53.13C49,-63.71 49,-75 49,-75 49,-75 543.95,-75 543.95,-75"/>
<polygon fill="#2c3e50" stroke="#2c3e50" points="543.95,-78.5 553.95,-75 543.95,-71.5 543.95,-78.5"/>
</g>
<!-- n0x63e5ab89e3c0 -->
<g id="node5" class="node">
<title>n0x63e5ab89e3c0</title>
<polygon fill="#f8e8e8" stroke="black" points="269,-94 269,-130 361,-130 361,-94 269,-94"/>
<text text-anchor="middle" x="280" y="-109.5" font-family="Times,serif" font-size="10.00">*</text>
<polyline fill="none" stroke="black" points="291,-94 291,-130 "/>
<text text-anchor="middle" x="326" y="-109.5" font-family="Times,serif" font-size="10.00">data 49.0000</text>
</g>
<!-- n0x63e5ab89e360&#45;&gt;n0x63e5ab89e3c0 -->
<g id="edge3" class="edge">
<title>n0x63e5ab89e360&#45;&gt;n0x63e5ab89e3c0</title>
<path fill="none" stroke="#2c3e50" d="M219.3,-105.83C219.3,-105.83 258.58,-105.83 258.58,-105.83"/>
<polygon fill="#2c3e50" stroke="#2c3e50" points="258.58,-109.33 268.58,-105.83 258.58,-102.33 258.58,-109.33"/>
</g>
<!-- n0x63e5ab89e360&#45;&gt;n0x63e5ab89e3c0 -->
<g id="edge4" class="edge">
<title>n0x63e5ab89e360&#45;&gt;n0x63e5ab89e3c0</title>
<path fill="none" stroke="#2c3e50" d="M219.3,-118.17C219.3,-118.17 258.58,-118.17 258.58,-118.17"/>
<polygon fill="#2c3e50" stroke="#2c3e50" points="258.58,-121.67 268.58,-118.17 258.58,-114.67 258.58,-121.67"/>
</g>
<!-- n0x63e5ab89e3c0&#45;&gt;n0x63e5ab89e420 -->
<g id="edge5" class="edge">
<title>n0x63e5ab89e3c0&#45;&gt;n0x63e5ab89e420</title>
<path fill="none" stroke="#2c3e50" d="M361.27,-112C361.27,-112 400.98,-112 400.98,-112"/>
<polygon fill="#2c3e50" stroke="#2c3e50" points="400.98,-115.5 410.98,-112 400.98,-108.5 400.98,-115.5"/>
</g>
<!-- n0x63e5ab89e420&#45;&gt;n0x63e5ab89e480 -->
<g id="edge7" class="edge">
<title>n0x63e5ab89e420&#45;&gt;n0x63e5ab89e480</title>
<path fill="none" stroke="#2c3e50" d="M504.09,-114C545.99,-114 601,-114 601,-114 601,-114 601,-107.32 601,-107.32"/>
<polygon fill="#2c3e50" stroke="#2c3e50" points="604.5,-107.32 601,-97.32 597.5,-107.32 604.5,-107.32"/>
</g>
</g>
</svg>
