<?xml version="1.0" encoding="UTF-8" standalone="no"?>
<!DOCTYPE svg PUBLIC "-//W3C//DTD SVG 1.1//EN"
 "http://www.w3.org/Graphics/SVG/1.1/DTD/svg11.dtd">
<!-- Generated by graphviz version 2.43.0 (0)
 -->
<!-- Title: G Pages: 1 -->
<svg width="1188pt" height="210pt"
 viewBox="0.00 0.00 1188.00 210.00" xmlns="http://www.w3.org/2000/svg" xmlns:xlink="http://www.w3.org/1999/xlink">
<g id="graph0" class="graph" transform="scale(1 1) rotate(0) translate(4 206)">
<title>G</title>
<polygon fill="#ffffff" stroke="transparent" points="-4,4 -4,-206 1184,-206 1184,4 -4,4"/>
<g id="clust1" class="cluster">
<title>cluster_forward</title>
<polygon fill="#f8e8e8" stroke="#2c3e50" points="8,-8 8,-194 1172,-194 1172,-8 8,-8"/>
<text text-anchor="middle" x="590" y="-180.4" font-family="Times,serif" font-size="12.00">Computation Graph</text>
</g>
<!-- n0x63e5ab89e2a0 -->
<g id="node1" class="node">
<title>n0x63e5ab89e2a0</title>
<polygon fill="#f8e8e8" stroke="black" points="16,-109 16,-145 152,-145 152,-109 16,-109"/>
<text text-anchor="middle" x="48.5" y="-124.5" font-family="Times,serif" font-size="10.00">data 3.0000</text>
<polyline fill="none" stroke="black" points="81,-109 81,-145 "/>
<text text-anchor="middle" x="116.5" y="-124.5" font-family="Times,serif" font-size="10.00">grad 15.0000</text>
</g>
<!-- n0x63e5ab89e360 -->
<g id="node3" class="node">
<title>n0x63e5ab89e360</title>
<polygon fill="#f8e8e8" stroke="black" points="202,-90 202,-126 361,-126 361,-90 202,-90"/>
<text text-anchor="middle" x="213.5" y="-105.5" font-family="Times,serif" font-size="10.00">+</text>
<polyline fill="none" stroke="black" points="225,-90 225,-126 "/>
<text text-anchor="middle" x="257.5" y="-105.5" font-family="Times,serif" font-size="10.00">data 7.0000</text>
<polyline fill="none" stroke="black" points="290,-90 290,-126 "/>
<text text-anchor="middle" x="325.5" y="-105.5" font-family="Times,serif" font-size="10.00">grad 14.0000</text>
</g>
<!-- n0x63e5ab89e2a0&#45;&gt;n0x63e5ab89e360 -->
<g id="edge1" class="edge">
<title>n0x63e5ab89e2a0&#45;&gt;n0x63e5ab89e360</title>
<path fill="none" stroke="#2c3e50" d="M152.24,-114.5C152.24,-114.5 191.71,-114.5 191.71,-114.5"/>
<polygon fill="#2c3e50" stroke="#2c3e50" points="191.71,-118 201.71,-114.5 191.71,-111 191.71,-118"/>
</g>
<!-- n0x63e5ab89e420 -->
<g id="node5" class="node">
<title>n0x63e5ab89e420</title>
<polygon fill="#f8e8e8" stroke="black" points="618,-109 618,-145 776,-145 776,-109 618,-109"/>
<text text-anchor="middle" x="629.5" y="-124.5" font-family="Times,serif" font-size="10.00">+</text>
<polyline fill="none" stroke="black" points="641,-109 641,-145 "/>
<text text-anchor="middle" x="676" y="-124.5" font-family="Times,serif" font-size="10.00">data 52.0000</text>
<polyline fill="none" stroke="black" points="711,-109 711,-145 "/>
<text text-anchor="middle" x="743.5" y="-124.5" font-family="Times,serif" font-size="10.00">grad 1.0000</text>
</g>
<!-- n0x63e5ab89e2a0&#45;&gt;n0x63e5ab89e420 -->
<g id="edge6" class="edge">
<title>n0x63e5ab89e2a0&#45;&gt;n0x63e5ab89e420</title>
<path fill="none" stroke="#2c3e50" d="M152.24,-132.83C152.24,-132.83 607.73,-132.83 607.73,-132.83"/>
<polygon fill="#2c3e50" stroke="#2c3e50" points="607.73,-136.33 617.73,-132.83 607.73,-129.33 607.73,-136.33"/>
</g>
<!-- n0x63e5ab89e2e0 -->
<g id="node2" class="node">
<title>n0x63e5ab89e2e0</title>
<polygon fill="#f8e8e8" stroke="black" points="421.5,-17 421.5,-53 557.5,-53 557.5,-17 421.5,-17"/>
<text text-anchor="middle" x="454" y="-32.5" font-family="Times,serif" font-size="10.00">data 4.0000</text>
<polyline fill="none" stroke="black" points="486.5,-17 486.5,-53 "/>
<text text-anchor="middle" x="522" y="-32.5" font-family="Times,serif" font-size="10.00">grad 14.0000</text>
</g>
<!-- n0x63e5ab89e2e0&#45;&gt;n0x63e5ab89e360 -->
<g id="edge2" class="edge">
<title>n0x63e5ab89e2e0&#45;&gt;n0x63e5ab89e360</title>
<path fill="none" stroke="#2c3e50" d="M421.36,-28.83C352.12,-28.83 255,-28.83 255,-28.83 255,-28.83 255,-79.64 255,-79.64"/>
<polygon fill="#2c3e50" stroke="#2c3e50" points="251.5,-79.64 255,-89.64 258.5,-79.64 251.5,-79.64"/>
</g>
<!-- n0x63e5ab89e360&#45;&gt;n0x63e5ab89e2a0 -->
<g id="edge9" class="edge">
<title>n0x63e5ab89e360&#45;&gt;n0x63e5ab89e2a0</title>
<path fill="none" stroke="#e74c3c" stroke-dasharray="5,2" d="M201.74,-120.5C201.74,-120.5 162.01,-120.5 162.01,-120.5"/>
<polygon fill="#e74c3c" stroke="#e74c3c" points="162.01,-117 152.01,-120.5 162.01,-124 162.01,-117"/>
</g>
<!-- n0x63e5ab89e360&#45;&gt;n0x63e5ab89e2e0 -->
<g id="edge10" class="edge">
<title>n0x63e5ab89e360&#45;&gt;n0x63e5ab89e2e0</title>
<path fill="none" stroke="#e74c3c" stroke-dasharray="5,2" d="M308,-89.74C308,-69.95 308,-41.17 308,-41.17 308,-41.17 411.4,-41.17 411.4,-41.17"/>
<polygon fill="#e74c3c" stroke="#e74c3c" points="411.4,-44.67 421.4,-41.17 411.4,-37.67 411.4,-44.67"/>
</g>
<!-- n0x63e5ab89e3c0 -->
<g id="node4" class="node">
<title>n0x63e5ab89e3c0</title>
<polygon fill="#f8e8e8" stroke="black" points="411,-90 411,-126 568,-126 568,-90 411,-90"/>
<text text-anchor="middle" x="422" y="-105.5" font-family="Times,serif" font-size="10.00">*</text>
<polyline fill="none" stroke="black" points="433,-90 433,-126 "/>
<text text-anchor="middle" x="468" y="-105.5" font-family="Times,serif" font-size="10.00">data 49.0000</text>
<polyline fill="none" stroke="black" points="503,-90 503,-126 "/>
<text text-anchor="middle" x="535.5" y="-105.5" font-family="Times,serif" font-size="10.00">grad 1.0000</text>
</g>
<!-- n0x63e5ab89e360&#45;&gt;n0x63e5ab89e3c0 -->
<g id="edge3" class="edge">
<title>n0x63e5ab89e360&#45;&gt;n0x63e5ab89e3c0</title>
<path fill="none" stroke="#2c3e50" d="M361.03,-96.9C361.03,-96.9 400.71,-96.9 400.71,-96.9"/>
<polygon fill="#2c3e50" stroke="#2c3e50" points="400.71,-100.4 410.71,-96.9 400.71,-93.4 400.71,-100.4"/>
</g>
<!-- n0x63e5ab89e360&#45;&gt;n0x63e5ab89e3c0 -->
<g id="edge4" class="edge">
<title>n0x63e5ab89e360&#45;&gt;n0x63e5ab89e3c0</title>
<path fill="none" stroke="#2c3e50" d="M361.03,-104.3C361.03,-104.3 400.71,-104.3 400.71,-104.3"/>
<polygon fill="#2c3e50" stroke="#2c3e50" points="400.71,-107.8 410.71,-104.3 400.71,-100.8 400.71,-107.8"/>
</g>
<!-- n0x63e5ab89e3c0&#45;&gt;n0x63e5ab89e360 -->
<g id="edge11" class="edge">
<title>n0x63e5ab89e3c0&#45;&gt;n0x63e5ab89e360</title>
<path fill="none" stroke="#e74c3c" stroke-dasharray="5,2" d="M410.86,-111.7C410.86,-111.7 371.28,-111.7 371.28,-111.7"/>
<polygon fill="#e74c3c" stroke="#e74c3c" points="371.28,-108.2 361.28,-111.7 371.28,-115.2 371.28,-108.2"/>
</g>
<!-- n0x63e5ab89e3c0&#45;&gt;n0x63e5ab89e360 -->
<g id="edge12" class="edge">
<title>n0x63e5ab89e3c0&#45;&gt;n0x63e5ab89e360</title>
<path fill="none" stroke="#e74c3c" stroke-dasharray="5,2" d="M410.86,-119.1C410.86,-119.1 371.28,-119.1 371.28,-119.1"/>
<polygon fill="#e74c3c" stroke="#e74c3c" points="371.28,-115.6 361.28,-119.1 371.28,-122.6 371.28,-115.6"/>
</g>
<!-- n0x63e5ab89e3c0&#45;&gt;n0x63e5ab89e420 -->
<g id="edge5" class="edge">
<title>n0x63e5ab89e3c0&#45;&gt;n0x63e5ab89e420</title>
<path fill="none" stroke="#2c3e50" d="M568.24,-114.5C568.24,-114.5 607.97,-114.5 607.97,-114.5"/>
<polygon fill="#2c3e50" stroke="#2c3e50" points="607.97,-118 617.97,-114.5 607.97,-111 607.97,-118"/>
</g>
<!-- n0x63e5ab89e420&#45;&gt;n0x63e5ab89e2a0 -->
<g id="edge14" class="edge">
<title>n0x63e5ab89e420&#45;&gt;n0x63e5ab89e2a0</title>
<path fill="none" stroke="#e74c3c" stroke-dasharray="5,2" d="M617.8,-139.17C617.8,-139.17 162.13,-139.17 162.13,-139.17"/>
<polygon fill="#e74c3c" stroke="#e74c3c" points="162.13,-135.67 152.13,-139.17 162.13,-142.67 162.13,-135.67"/>
</g>
<!-- n0x63e5ab89e420&#45;&gt;n0x63e5ab89e3c0 -->
<g id="edge13" class="edge">
<title>n0x63e5ab89e420&#45;&gt;n0x63e5ab89e3c0</title>
<path fill="none" stroke="#e74c3c" stroke-dasharray="5,2" d="M617.96,-120.5C617.96,-120.5 578.32,-120.5 578.32,-120.5"/>
<polygon fill="#e74c3c" stroke="#e74c3c" points="578.32,-117 568.32,-120.5 578.32,-124 578.32,-117"/>
</g>
<!-- n0x63e5ab89e480 -->
<g id="node7" class="node">
<title>n0x63e5ab89e480</title>
<polygon fill="#f8e8e8" stroke="black" points="826,-109 826,-145 984,-145 984,-109 826,-109"/>
<text text-anchor="middle" x="837.5" y="-124.5" font-family="Times,serif" font-size="10.00">+</text>
<polyline fill="none" stroke="black" points="849,-109 849,-145 "/>
<text text-anchor="middle" x="884" y="-124.5" font-family="Times,serif" font-size="10.00">data 55.0000</text>
<polyline fill="none" stroke="black" points="919,-109 919,-145 "/>
<text text-anchor="middle" x="951.5" y="-124.5" font-family="Times,serif" font-size="10.00">grad 1.0000</text>
</g>
<!-- n0x63e5ab89e420&#45;&gt;n0x63e5ab89e480 -->
<g id="edge7" class="edge">
<title>n0x63e5ab89e420&#45;&gt;n0x63e5ab89e480</title>
<path fill="none" stroke="#2c3e50" d="M776.23,-120.83C776.23,-120.83 815.99,-120.83 815.99,-120.83"/>
<polygon fill="#2c3e50" stroke="#2c3e50" points="815.99,-124.33 825.99,-120.83 815.99,-117.33 815.99,-124.33"/>
</g>
<!-- n0x63e5ab89e320 -->
<g id="node6" class="node">
<title>n0x63e5ab89e320</title>
<polygon fill="#f8e8e8" stroke="black" points="1034,-109 1034,-145 1164,-145 1164,-109 1034,-109"/>
<text text-anchor="middle" x="1066.5" y="-124.5" font-family="Times,serif" font-size="10.00">data 3.0000</text>
<polyline fill="none" stroke="black" points="1099,-109 1099,-145 "/>
<text text-anchor="middle" x="1131.5" y="-124.5" font-family="Times,serif" font-size="10.00">grad 1.0000</text>
</g>
<!-- n0x63e5ab89e320&#45;&gt;n0x63e5ab89e480 -->
<g id="edge8" class="edge">
<title>n0x63e5ab89e320&#45;&gt;n0x63e5ab89e480</title>
<path fill="none" stroke="#2c3e50" d="M1033.86,-120.83C1033.86,-120.83 994.11,-120.83 994.11,-120.83"/>
<polygon fill="#2c3e50" stroke="#2c3e50" points="994.11,-117.33 984.11,-120.83 994.11,-124.33 994.11,-117.33"/>
</g>
<!-- n0x63e5ab89e480&#45;&gt;n0x63e5ab89e420 -->
<g id="edge15" class="edge">
<title>n0x63e5ab89e480&#45;&gt;n0x63e5ab89e420</title>
<path fill="none" stroke="#e74c3c" stroke-dasharray="5,2" d="M825.77,-133.17C825.77,-133.17 786.01,-133.17 786.01,-133.17"/>
<polygon fill="#e74c3c" stroke="#e74c3c" points="786.01,-129.67 776.01,-133.17 786.01,-136.67 786.01,-129.67"/>
</g>
<!-- n0x63e5ab89e480&#45;&gt;n0x63e5ab89e320 -->
<g id="edge16" class="edge">
<title>n0x63e5ab89e480&#45;&gt;n0x63e5ab89e320</title>
<path fill="none" stroke="#e74c3c" stroke-dasharray="5,2" d="M984.19,-133.17C984.19,-133.17 1023.98,-133.17 1023.98,-133.17"/>
<polygon fill="#e74c3c" stroke="#e74c3c" points="1023.98,-136.67 1033.98,-133.17 1023.98,-129.67 1023.98,-136.67"/>
</g>
</g>
</svg>
