<?xml version="1.0" encoding="UTF-8" standalone="no"?>
<!DOCTYPE svg PUBLIC "-//W3C//DTD SVG 1.1//EN"
 "http://www.w3.org/Graphics/SVG/1.1/DTD/svg11.dtd">
<!-- Generated by graphviz version 2.43.0 (0)
 -->
<!-- Title: simple_backward Pages: 1 -->
<svg width="378pt" height="333pt"
 viewBox="0.00 0.00 377.88 332.85" xmlns="http://www.w3.org/2000/svg" xmlns:xlink="http://www.w3.org/1999/xlink">
<g id="graph0" class="graph" transform="scale(1 1) rotate(0) translate(4 328.85)">
<title>simple_backward</title>
<polygon fill="#ffffff" stroke="transparent" points="-4,4 -4,-328.85 373.88,-328.85 373.88,4 -4,4"/>
<text text-anchor="middle" x="184.94" y="-22.8" font-family="Times,serif" font-size="14.00">Backward Pass: Chain Rule Application</text>
<text text-anchor="middle" x="184.94" y="-7.8" font-family="Times,serif" font-size="14.00">∂L/∂w = ∂L/∂a · ∂a/∂z · ∂z/∂w</text>
<g id="clust1" class="cluster">
<title>cluster_grads</title>
<polygon fill="#f8f9fa" stroke="#95a5a6" points="160.09,-117.85 160.09,-218.85 361.88,-218.85 361.88,-117.85 160.09,-117.85"/>
<text text-anchor="middle" x="260.99" y="-203.65" font-family="Times,serif" font-size="14.00">Gradient Flow</text>
</g>
<g id="clust2" class="cluster">
<title>cluster_input</title>
<polygon fill="#f8f9fa" stroke="#95a5a6" points="0,-111.85 0,-316.85 127.09,-316.85 127.09,-111.85 0,-111.85"/>
<text text-anchor="middle" x="63.55" y="-301.65" font-family="Times,serif" font-size="14.00">Parameter Gradients</text>
</g>
<!-- dl -->
<g id="node1" class="node">
<title>dl</title>
<ellipse fill="white" stroke="#2c3e50" cx="322.69" cy="-156.85" rx="31.4" ry="31.4"/>
<text text-anchor="middle" x="322.69" y="-153.15" font-family="Times,serif" font-size="14.00">∂L/∂a</text>
</g>
<!-- dz -->
<g id="node2" class="node">
<title>dz</title>
<ellipse fill="white" stroke="#2c3e50" cx="199.29" cy="-156.85" rx="31.4" ry="31.4"/>
<text text-anchor="middle" x="199.29" y="-153.15" font-family="Times,serif" font-size="14.00">∂L/∂z</text>
</g>
<!-- dl&#45;&gt;dz -->
<g id="edge1" class="edge">
<title>dl&#45;&gt;dz</title>
<path fill="none" stroke="#e74c3c" stroke-width="1.2" stroke-dasharray="5,2" d="M291.37,-156.85C276.16,-156.85 257.52,-156.85 241.08,-156.85"/>
<polygon fill="#e74c3c" stroke="#e74c3c" stroke-width="1.2" points="240.64,-153.35 230.64,-156.85 240.64,-160.35 240.64,-153.35"/>
<text text-anchor="middle" x="260.99" y="-160.65" font-family="Times,serif" font-size="14.00">σ&#39;(z)</text>
</g>
<!-- dw1 -->
<g id="node3" class="node">
<title>dw1</title>
<ellipse fill="white" stroke="#2c3e50" cx="64.05" cy="-248.85" rx="37.09" ry="37.09"/>
<text text-anchor="middle" x="64.05" y="-245.15" font-family="Times,serif" font-size="14.00">∂L/∂w₁</text>
</g>
<!-- dz&#45;&gt;dw1 -->
<g id="edge2" class="edge">
<title>dz&#45;&gt;dw1</title>
<path fill="none" stroke="#e74c3c" stroke-width="1.2" stroke-dasharray="5,2" d="M173.23,-174.15C153.58,-187.72 125.89,-206.84 103.45,-222.33"/>
<polygon fill="#e74c3c" stroke="#e74c3c" stroke-width="1.2" points="101.37,-219.51 95.13,-228.08 105.35,-225.28 101.37,-219.51"/>
<text text-anchor="middle" x="143.59" y="-200.65" font-family="Times,serif" font-size="14.00">x₁</text>
</g>
<!-- dw2 -->
<g id="node4" class="node">
<title>dw2</title>
<ellipse fill="white" stroke="#2c3e50" cx="64.05" cy="-156.85" rx="37.09" ry="37.09"/>
<text text-anchor="middle" x="64.05" y="-153.15" font-family="Times,serif" font-size="14.00">∂L/∂w₂</text>
</g>
<!-- dz&#45;&gt;dw2 -->
<g id="edge3" class="edge">
<title>dz&#45;&gt;dw2</title>
<path fill="none" stroke="#e74c3c" stroke-width="1.2" stroke-dasharray="5,2" d="M168.06,-156.85C151.34,-156.85 130.22,-156.85 111.46,-156.85"/>
<polygon fill="#e74c3c" stroke="#e74c3c" stroke-width="1.2" points="111.32,-153.35 101.32,-156.85 111.32,-160.35 111.32,-153.35"/>
<text text-anchor="middle" x="143.59" y="-160.65" font-family="Times,serif" font-size="14.00">x₂</text>
</g>
<!-- db -->
<g id="node5" class="node">
<title>db</title>
<ellipse fill="white" stroke="#2c3e50" cx="64.05" cy="-69.85" rx="31.7" ry="31.7"/>
<text text-anchor="middle" x="64.05" y="-66.15" font-family="Times,serif" font-size="14.00">∂L/∂b</text>
</g>
<!-- dz&#45;&gt;db -->
<g id="edge4" class="edge">
<title>dz&#45;&gt;db</title>
<path fill="none" stroke="#e74c3c" stroke-width="1.2" stroke-dasharray="5,2" d="M173.47,-139.28C159.89,-129.8 142.7,-117.98 127.09,-107.85 118.51,-102.27 109.15,-96.42 100.36,-91.03"/>
<polygon fill="#e74c3c" stroke="#e74c3c" stroke-width="1.2" points="102.17,-88.03 91.81,-85.81 98.53,-94.01 102.17,-88.03"/>
<text text-anchor="middle" x="143.59" y="-125.65" font-family="Times,serif" font-size="14.00">1</text>
</g>
</g>
</svg>
