<?xml version="1.0" encoding="UTF-8" standalone="no"?>
<!DOCTYPE svg PUBLIC "-//W3C//DTD SVG 1.1//EN"
 "http://www.w3.org/Graphics/SVG/1.1/DTD/svg11.dtd">
<!-- Generated by graphviz version 2.43.0 (0)
 -->
<!-- Title: simple_forward Pages: 1 -->
<svg width="279pt" height="233pt"
 viewBox="0.00 0.00 278.70 233.00" xmlns="http://www.w3.org/2000/svg" xmlns:xlink="http://www.w3.org/1999/xlink">
<g id="graph0" class="graph" transform="scale(1 1) rotate(0) translate(4 229)">
<title>simple_forward</title>
<polygon fill="#ffffff" stroke="transparent" points="-4,4 -4,-229 274.7,-229 274.7,4 -4,4"/>
<text text-anchor="middle" x="135.35" y="-22.8" font-family="Times,serif" font-size="14.00">Forward Pass: z = w₁x₁ + w₂x₂ + b</text>
<text text-anchor="middle" x="135.35" y="-7.8" font-family="Times,serif" font-size="14.00">a = σ(z)</text>
<g id="clust1" class="cluster">
<title>cluster_input</title>
<polygon fill="#f8f9fa" stroke="#95a5a6" points="0,-84 0,-217 79.7,-217 79.7,-84 0,-84"/>
<text text-anchor="middle" x="39.85" y="-201.8" font-family="Times,serif" font-size="14.00">Input Layer</text>
</g>
<g id="clust2" class="cluster">
<title>cluster_hidden</title>
<polygon fill="#f8f9fa" stroke="#95a5a6" points="115.7,-85 115.7,-160 262.7,-160 262.7,-85 115.7,-85"/>
<text text-anchor="middle" x="189.2" y="-144.8" font-family="Times,serif" font-size="14.00">Computation</text>
</g>
<!-- x1 -->
<g id="node1" class="node">
<title>x1</title>
<ellipse fill="white" stroke="#2c3e50" cx="39.85" cy="-167" rx="18.7" ry="18.7"/>
<text text-anchor="middle" x="39.85" y="-163.3" font-family="Times,serif" font-size="14.00">x₁</text>
</g>
<!-- z -->
<g id="node3" class="node">
<title>z</title>
<ellipse fill="white" stroke="#2c3e50" cx="141.7" cy="-111" rx="18" ry="18"/>
<text text-anchor="middle" x="141.7" y="-107.3" font-family="Times,serif" font-size="14.00">z</text>
</g>
<!-- x1&#45;&gt;z -->
<g id="edge1" class="edge">
<title>x1&#45;&gt;z</title>
<path fill="none" stroke="#2c3e50" stroke-width="1.5" d="M56.89,-158C73.11,-148.9 98.37,-134.74 116.92,-124.33"/>
<polygon fill="#2c3e50" stroke="#2c3e50" stroke-width="1.5" points="118.66,-127.37 125.67,-119.43 115.24,-121.26 118.66,-127.37"/>
<text text-anchor="middle" x="97.7" y="-142.8" font-family="Times,serif" font-size="14.00">w₁</text>
</g>
<!-- x2 -->
<g id="node2" class="node">
<title>x2</title>
<ellipse fill="white" stroke="#2c3e50" cx="39.85" cy="-111" rx="18.7" ry="18.7"/>
<text text-anchor="middle" x="39.85" y="-107.3" font-family="Times,serif" font-size="14.00">x₂</text>
</g>
<!-- x2&#45;&gt;z -->
<g id="edge2" class="edge">
<title>x2&#45;&gt;z</title>
<path fill="none" stroke="#2c3e50" stroke-width="1.5" d="M58.7,-111C73.94,-111 96.08,-111 113.52,-111"/>
<polygon fill="#2c3e50" stroke="#2c3e50" stroke-width="1.5" points="113.67,-114.5 123.67,-111 113.67,-107.5 113.67,-114.5"/>
<text text-anchor="middle" x="97.7" y="-114.8" font-family="Times,serif" font-size="14.00">w₂</text>
</g>
<!-- a -->
<g id="node4" class="node">
<title>a</title>
<ellipse fill="white" stroke="#2c3e50" cx="236.7" cy="-111" rx="18" ry="18"/>
<text text-anchor="middle" x="236.7" y="-107.3" font-family="Times,serif" font-size="14.00">a</text>
</g>
<!-- z&#45;&gt;a -->
<g id="edge4" class="edge">
<title>z&#45;&gt;a</title>
<path fill="none" stroke="#2c3e50" stroke-width="1.5" d="M159.75,-111C173.3,-111 192.52,-111 208.23,-111"/>
<polygon fill="#2c3e50" stroke="#2c3e50" stroke-width="1.5" points="208.43,-114.5 218.43,-111 208.43,-107.5 208.43,-114.5"/>
<text text-anchor="middle" x="189.2" y="-114.8" font-family="Times,serif" font-size="14.00">σ(z)</text>
</g>
<!-- b -->
<g id="node5" class="node">
<title>b</title>
<ellipse fill="white" stroke="#2c3e50" cx="39.85" cy="-56" rx="18" ry="18"/>
<text text-anchor="middle" x="39.85" y="-52.3" font-family="Times,serif" font-size="14.00">b</text>
</g>
<!-- b&#45;&gt;z -->
<g id="edge3" class="edge">
<title>b&#45;&gt;z</title>
<path fill="none" stroke="#2c3e50" stroke-width="1.5" d="M56.01,-64.35C72.07,-73.2 97.64,-87.28 116.49,-97.67"/>
<polygon fill="#2c3e50" stroke="#2c3e50" stroke-width="1.5" points="114.94,-100.81 125.39,-102.57 118.32,-94.68 114.94,-100.81"/>
<text text-anchor="middle" x="97.7" y="-94.8" font-family="Times,serif" font-size="14.00">1</text>
</g>
</g>
</svg>
